<svg width="21" height="22" viewBox="0 0 21 22" fill="none" xmlns="http://www.w3.org/2000/svg">
<path d="M19.2559 11C19.2559 15.6238 15.5076 19.3721 10.8838 19.3721M19.2559 11C19.2559 6.37621 15.5076 2.6279 10.8838 2.6279M19.2559 11C19.2559 9.61286 15.5076 8.48836 10.8838 8.48836C6.26003 8.48836 2.51172 9.61286 2.51172 11M19.2559 11C19.2559 12.3871 15.5076 13.5116 10.8838 13.5116C6.26003 13.5116 2.51172 12.3871 2.51172 11M10.8838 19.3721C6.26003 19.3721 2.51172 15.6238 2.51172 11M10.8838 19.3721C12.7333 19.3721 14.2326 15.6238 14.2326 11C14.2326 6.37621 12.7333 2.6279 10.8838 2.6279M10.8838 19.3721C9.0343 19.3721 7.53497 15.6238 7.53497 11C7.53497 6.37621 9.0343 2.6279 10.8838 2.6279M2.51172 11C2.51172 6.37621 6.26003 2.6279 10.8838 2.6279" stroke="#161616" stroke-width="1.25581"/>
</svg>
